<svg xmlns="http://www.w3.org/2000/svg" width="110"
     height="100" viewBox="0 0 80 80">
    <g fill="#1c82ff"
       transform="matrix(1.0905363126993066,0,0,1.0905363126993066,-11.543324831489874,-14.7516851678109)">
        <path xmlns="http://www.w3.org/2000/svg"
              d="M87,50.636c0-0.016-0.009-0.03-0.01-0.046c0.001-0.109,0.009-0.217,0.009-0.327c0-20.257-17.139-36.736-38.206-36.736  c-21.067,0-38.207,16.479-38.207,36.736c0,0.084,0.006,0.167,0.006,0.251c0,0.083-0.007,0.165-0.007,0.248  c0,0.026,0.013,0.049,0.016,0.074C10.923,70.828,27.926,87,48.793,87c19.782,0,36.099-14.532,38.016-33.077  C86.935,52.84,87,51.743,87,50.636z M48.793,15.214c20.1,0,36.451,15.723,36.451,35.049c0,1.175-0.062,2.335-0.181,3.48  c-1.762,15.173-16.229,27.456-33.159,27.456c-17.448,0-25.044-8.427-28.186-17.432c5.134,8.276,14.913,14.01,25.852,14.01  c15.494,0,28.098-12.118,28.098-27.016c0-0.003-0.002-0.006-0.002-0.01c0-0.032-0.002-0.064-0.002-0.097  c0-0.006,0.004-0.012,0.004-0.018c0-0.115-0.008-0.228-0.01-0.342c-0.167-15.455-8.629-31.784-31.977-31.784  c-10.508,0-20.108,4.511-26.604,11.491C25.689,21.062,36.541,15.214,48.793,15.214z M75.91,50.762c0,0.003,0.002,0.005,0.002,0.008  C75.907,64.732,64.093,76.09,49.57,76.09c-14.833,0-27.683-11.793-27.731-25.255c0-0.065,0.161-0.134,0.161-0.199  c0-0.001,0-0.002,0-0.004c0-13.965,11.656-25.323,26.178-25.323c14.805,0,27.713,11.747,27.811,25.176  C75.99,50.577,75.91,50.679,75.91,50.762z M12.349,50.532c0.141-16.466,15.345-30.333,33.333-30.333  c16.148,0,23.691,8.021,27.202,15.96c-5.34-7.477-14.55-12.539-24.828-12.539C32.563,23.62,20,35.739,20,50.637  c0,0.002,0,0.003,0,0.005c0,0.038,0,0.078,0,0.116c0,0.001,0,0.002,0,0.004c0,0.017-0.039,0.034-0.039,0.051  c0.04,12.065,4.267,32.074,31.964,32.074c8.542,0,16.473-2.984,22.637-7.849c-6.6,6.345-15.716,10.273-25.764,10.273  C28.793,85.312,12.5,69.733,12.349,50.532z"></path>
        </g>
</svg>