<svg xmlns="http://www.w3.org/2000/svg" width="429.00000000000006"
     height="92.98542974360328" viewBox="0 0 369.6666666666667 80.12497403702878">
    <g fill="#1c82ff"
       transform="matrix(1.0905363126993066,0,0,1.0905363126993066,-11.543324831489874,-14.7516851678109)">
        <path xmlns="http://www.w3.org/2000/svg"
              d="M87,50.636c0-0.016-0.009-0.03-0.01-0.046c0.001-0.109,0.009-0.217,0.009-0.327c0-20.257-17.139-36.736-38.206-36.736  c-21.067,0-38.207,16.479-38.207,36.736c0,0.084,0.006,0.167,0.006,0.251c0,0.083-0.007,0.165-0.007,0.248  c0,0.026,0.013,0.049,0.016,0.074C10.923,70.828,27.926,87,48.793,87c19.782,0,36.099-14.532,38.016-33.077  C86.935,52.84,87,51.743,87,50.636z M48.793,15.214c20.1,0,36.451,15.723,36.451,35.049c0,1.175-0.062,2.335-0.181,3.48  c-1.762,15.173-16.229,27.456-33.159,27.456c-17.448,0-25.044-8.427-28.186-17.432c5.134,8.276,14.913,14.01,25.852,14.01  c15.494,0,28.098-12.118,28.098-27.016c0-0.003-0.002-0.006-0.002-0.01c0-0.032-0.002-0.064-0.002-0.097  c0-0.006,0.004-0.012,0.004-0.018c0-0.115-0.008-0.228-0.01-0.342c-0.167-15.455-8.629-31.784-31.977-31.784  c-10.508,0-20.108,4.511-26.604,11.491C25.689,21.062,36.541,15.214,48.793,15.214z M75.91,50.762c0,0.003,0.002,0.005,0.002,0.008  C75.907,64.732,64.093,76.09,49.57,76.09c-14.833,0-27.683-11.793-27.731-25.255c0-0.065,0.161-0.134,0.161-0.199  c0-0.001,0-0.002,0-0.004c0-13.965,11.656-25.323,26.178-25.323c14.805,0,27.713,11.747,27.811,25.176  C75.99,50.577,75.91,50.679,75.91,50.762z M12.349,50.532c0.141-16.466,15.345-30.333,33.333-30.333  c16.148,0,23.691,8.021,27.202,15.96c-5.34-7.477-14.55-12.539-24.828-12.539C32.563,23.62,20,35.739,20,50.637  c0,0.002,0,0.003,0,0.005c0,0.038,0,0.078,0,0.116c0,0.001,0,0.002,0,0.004c0,0.017-0.039,0.034-0.039,0.051  c0.04,12.065,4.267,32.074,31.964,32.074c8.542,0,16.473-2.984,22.637-7.849c-6.6,6.345-15.716,10.273-25.764,10.273  C28.793,85.312,12.5,69.733,12.349,50.532z"></path>
        </g>
    <g transform="matrix(0.8394983351836985,0,0,0.8394983351836985,101.9254417546791,20.81389309795202)" fill="#097df8">
        <path d="M43.88 35.28 l-21.52 -25 l-20.84 25 c-0.16 0.18668 -0.24 0.41336 -0.24 0.68004 c0 0.77332 0.38668 1.16 1.16 1.16 c0.32 0 0.58668 -0.13332 0.8 -0.4 l0 0 l6.32 -7.6 l26.08 0 l6.56 7.6 c0.24 0.26668 0.53332 0.4 0.88 0.4 c0.72 0 1.08 -0.36 1.08 -1.08 c0 -0.29332 -0.09332 -0.54664 -0.28 -0.75996 z M11.44 26.880000000000003 l10.96 -13.16 l11.36 13.16 l-22.32 0 z M81.99 35.08 l-8.96 -5.96 l0.32 0 c2.5333 0 4.6868 -0.89332 6.46 -2.68 s2.66 -3.9334 2.66 -6.44 c0 -2.5333 -0.88668 -4.6868 -2.66 -6.46 s-3.9266 -2.66 -6.46 -2.66 l-25.12 0 l0 25.12 c0 0.74668 0.37332 1.12 1.12 1.12 s1.12 -0.37332 1.12 -1.12 l0 -6.88 l18.56 0 l11.72 7.8 c0.18668 0.13332 0.38668 0.2 0.6 0.2 c0.4 0 0.70668 -0.17332 0.92 -0.52 c0.13332 -0.18668 0.2 -0.38668 0.2 -0.6 c0 -0.4 -0.16 -0.70668 -0.48 -0.92 z M50.47 13.120000000000001 l22.88 0 c1.8933 0 3.5133 0.67332 4.86 2.02 s2.02 2.9667 2.02 4.86 s-0.67332 3.5133 -2.02 4.86 s-2.9667 2.02 -4.86 2.02 l-22.88 0 l0 -13.76 z M119.02000000000001 10.879999999999999 l-32 0 c-0.74668 0 -1.12 0.37332 -1.12 1.12 s0.37332 1.12 1.12 1.12 l14.88 0 l0 22.88 c0 0.74668 0.37332 1.12 1.12 1.12 s1.12 -0.37332 1.12 -1.12 l0 -22.88 l14.88 0 c0.74668 0 1.12 -0.37332 1.12 -1.12 s-0.37332 -1.12 -1.12 -1.12 z M140.01 34.2 l-17.12 -25.64 l0 27.68 c0 0.72 0.37332 1.08 1.12 1.08 c0.72 0 1.08 -0.36 1.08 -1.08 l0 -20.36 l14.92 22.36 l14.88 -22.36 l0 20.36 c0 0.72 0.37332 1.08 1.12 1.08 c0.72 0 1.08 -0.36 1.08 -1.08 l0 -27.68 z M203 35.28 l-21.52 -25 l-20.84 25 c-0.16 0.18668 -0.24 0.41336 -0.24 0.68004 c0 0.77332 0.38668 1.16 1.16 1.16 c0.32 0 0.58668 -0.13332 0.8 -0.4 l0 0 l6.32 -7.6 l26.08 0 l6.56 7.6 c0.24 0.26668 0.53332 0.4 0.88 0.4 c0.72 0 1.08 -0.36 1.08 -1.08 c0 -0.29332 -0.09332 -0.54664 -0.28 -0.75996 z M170.56 26.880000000000003 l10.96 -13.16 l11.36 13.16 l-22.32 0 z M240.75 35.12 l-30.88 0 l0 -22.88 c0 -0.74668 -0.37332 -1.12 -1.12 -1.12 s-1.12 0.37332 -1.12 1.12 l0 25.08 l33.12 0 c0.74668 0 1.12 -0.36 1.12 -1.08 c0 -0.74668 -0.37332 -1.12 -1.12 -1.12 z M279.02000000000004 35.12 l-30.88 0 l0 -22.88 c0 -0.74668 -0.37332 -1.12 -1.12 -1.12 s-1.12 0.37332 -1.12 1.12 l0 25.08 l33.12 0 c0.74668 0 1.12 -0.36 1.12 -1.08 c0 -0.74668 -0.37332 -1.12 -1.12 -1.12 z M301.17 10.440000000000001 c-4.8532 0 -9.0132 1.32 -12.48 3.96 c-3.5467 2.6933 -5.32 5.9732 -5.32 9.84 s1.7733 7.1468 5.32 9.84 c3.44 2.6133 7.6 3.92 12.48 3.92 s9.0268 -1.3067 12.44 -3.92 c3.5467 -2.72 5.32 -6 5.32 -9.84 s-1.7733 -7.12 -5.32 -9.84 c-3.4667 -2.64 -7.6132 -3.96 -12.44 -3.96 z M316.73 24.240000000000002 c0 3.1733 -1.52 5.8868 -4.56 8.14 s-6.7068 3.38 -11 3.38 s-7.96 -1.1267 -11 -3.38 s-4.56 -4.9668 -4.56 -8.14 c0 -3.2 1.52 -5.9268 4.56 -8.18 s6.7068 -3.38 11 -3.38 s7.96 1.1267 11 3.38 s4.56 4.98 4.56 8.18 z"></path>
    </g>
</svg>

